<svg xmlns="http://www.w3.org/2000/svg" viewBox="0 0 600 600" width="600" height="600">
<title>Live</title>
<rect width="600" height="600" fill="#17120f"/>
<clipPath id="panel"><rect x="40" y="40" width="520" height="360" rx="14"/></clipPath>
<rect x="40" y="40" width="520" height="360" rx="14" fill="#c0392b"/>
<g clip-path="url(#panel)"><path d="M346.0 71.4A60 60 0 0 1 346.0 148.6" fill="none" stroke="#efe4cc" stroke-width="14" stroke-linecap="round"/><path d="M254.0 148.6A60 60 0 0 1 254.0 71.4" fill="none" stroke="#efe4cc" stroke-width="14" stroke-linecap="round"/><path d="M376.6 45.7A100 100 0 0 1 376.6 174.3" fill="none" stroke="#efe4cc" stroke-width="14" stroke-linecap="round"/><path d="M223.4 174.3A100 100 0 0 1 223.4 45.7" fill="none" stroke="#efe4cc" stroke-width="14" stroke-linecap="round"/><path d="M407.2 20.0A140 140 0 0 1 407.2 200.0" fill="none" stroke="#efe4cc" stroke-width="14" stroke-linecap="round"/><path d="M192.8 200.0A140 140 0 0 1 192.8 20.0" fill="none" stroke="#efe4cc" stroke-width="14" stroke-linecap="round"/><path d="M437.9 -5.7A180 180 0 0 1 437.9 225.7" fill="none" stroke="#efe4cc" stroke-width="14" stroke-linecap="round"/><path d="M162.1 225.7A180 180 0 0 1 162.1 -5.7" fill="none" stroke="#efe4cc" stroke-width="14" stroke-linecap="round"/><path d="M300 110L220 390H380Z" fill="none" stroke="#17120f" stroke-width="12" stroke-linejoin="round"/><line x1="285.7" y1="160" x2="314.3" y2="160" stroke="#17120f" stroke-width="8"/><line x1="300.0" y1="110" x2="314.3" y2="160" stroke="#17120f" stroke-width="6"/><line x1="300.0" y1="110" x2="285.7" y2="160" stroke="#17120f" stroke-width="6"/><line x1="268.6" y1="220" x2="331.4" y2="220" stroke="#17120f" stroke-width="8"/><line x1="285.7" y1="160" x2="331.4" y2="220" stroke="#17120f" stroke-width="6"/><line x1="314.3" y1="160" x2="268.6" y2="220" stroke="#17120f" stroke-width="6"/><line x1="250.0" y1="285" x2="350.0" y2="285" stroke="#17120f" stroke-width="8"/><line x1="268.6" y1="220" x2="350.0" y2="285" stroke="#17120f" stroke-width="6"/><line x1="331.4" y1="220" x2="250.0" y2="285" stroke="#17120f" stroke-width="6"/><line x1="231.4" y1="350" x2="368.6" y2="350" stroke="#17120f" stroke-width="8"/><line x1="250.0" y1="285" x2="368.6" y2="350" stroke="#17120f" stroke-width="6"/><line x1="350.0" y1="285" x2="231.4" y2="350" stroke="#17120f" stroke-width="6"/><circle cx="300" cy="104" r="22" fill="#17120f"/><circle cx="300" cy="104" r="12" fill="#e3b03a"/><rect x="60" y="60" width="92" height="40" rx="6" fill="#17120f"/><circle cx="84" cy="80" r="9" fill="#c0392b"/><text x="98" y="92" font-family="Futura, 'Century Gothic', 'Avenir Next', 'Trebuchet MS', sans-serif" font-weight="700" font-size="30" fill="#efe4cc">ON</text></g>
<g><rect x="40" y="414" width="520" height="7" fill="#e2582b"/><rect x="40" y="423" width="520" height="7" fill="#e3b03a"/><rect x="40" y="432" width="520" height="7" fill="#8a8b3b"/><rect x="40" y="441" width="520" height="7" fill="#3d8d8c"/><rect x="40" y="450" width="520" height="7" fill="#33506b"/></g>
<text x="40" y="526" font-family="Futura, 'Century Gothic', 'Avenir Next', 'Trebuchet MS', sans-serif" font-weight="700" font-size="82" fill="#efe4cc" letter-spacing="-1">Live</text>
<text font-family="Futura, 'Century Gothic', 'Avenir Next', 'Trebuchet MS', sans-serif" font-weight="500" font-size="16" letter-spacing="2" fill="#efe4cc" fill-opacity=".62"><tspan x="40" y="562">A · ON THE AIR</tspan><tspan x="40" y="584">B · AS IT HAPPENED</tspan></text>
<text x="560" y="584" text-anchor="end" font-family="Futura, 'Century Gothic', 'Avenir Next', 'Trebuchet MS', sans-serif" font-weight="700" font-size="16" letter-spacing="2" fill="#c0392b">CASET 07</text>
</svg>
