<svg xmlns="http://www.w3.org/2000/svg" viewBox="0 0 600 1060" width="600" height="1060">
<title>Living things</title>
<rect width="600" height="1060" fill="#6f9a52"/>
<clipPath id="band"><rect width="600" height="415"/></clipPath>
<g clip-path="url(#band)"><g transform="scale(1.1538) translate(-40 -40)"><circle cx="430" cy="130" r="70" fill="#e3b03a"/><path d="M60 380Q70 330 90 310" fill="none" stroke="#17120f" stroke-width="10" stroke-linecap="round"/><path d="M100 380Q110 310 130 285" fill="none" stroke="#17120f" stroke-width="10" stroke-linecap="round"/><path d="M140 380Q150 290 170 310" fill="none" stroke="#17120f" stroke-width="10" stroke-linecap="round"/><path d="M180 380Q190 330 210 285" fill="none" stroke="#17120f" stroke-width="10" stroke-linecap="round"/><path d="M220 380Q230 310 250 310" fill="none" stroke="#17120f" stroke-width="10" stroke-linecap="round"/><path d="M260 380Q270 290 290 285" fill="none" stroke="#17120f" stroke-width="10" stroke-linecap="round"/><path d="M300 380Q310 330 330 310" fill="none" stroke="#17120f" stroke-width="10" stroke-linecap="round"/><path d="M340 380Q350 310 370 285" fill="none" stroke="#17120f" stroke-width="10" stroke-linecap="round"/><path d="M380 380Q390 290 410 310" fill="none" stroke="#17120f" stroke-width="10" stroke-linecap="round"/><path d="M420 380Q430 330 450 285" fill="none" stroke="#17120f" stroke-width="10" stroke-linecap="round"/><path d="M460 380Q470 310 490 310" fill="none" stroke="#17120f" stroke-width="10" stroke-linecap="round"/><path d="M500 380Q510 290 530 285" fill="none" stroke="#17120f" stroke-width="10" stroke-linecap="round"/><path d="M540 380Q550 330 570 310" fill="none" stroke="#17120f" stroke-width="10" stroke-linecap="round"/><clipPath id="bb"><circle cx="290" cy="220" r="115"/></clipPath><path d="M190 235L60 175L90 265Z" fill="#17120f"/><path d="M175 220A115 115 0 0 0 405 220Z" fill="#17120f" transform="translate(8 8)"/><path d="M175 220A115 115 0 0 0 405 220Z" fill="#efe4cc"/><g clip-path="url(#bb)"><circle cx="400" cy="300" r="95" fill="#e2582b"/></g><path d="M175 220A115 115 0 0 0 290 335V220Z" fill="#17120f"/><path d="M175 220A115 115 0 0 0 250 328L250 220Z" fill="#3d8d8c" opacity=".0"/><circle cx="370" cy="175" r="58" fill="#efe4cc"/><path d="M420 155L475 172L420 190Z" fill="#17120f"/><circle cx="385" cy="165" r="11" fill="#17120f"/><rect x="270" y="335" width="10" height="45" fill="#17120f"/><rect x="310" y="335" width="10" height="45" fill="#17120f"/></g></g>
<g><rect x="0" y="455" width="600" height="16" fill="#e2582b"/><rect x="0" y="477" width="600" height="16" fill="#e3b03a"/><rect x="0" y="499" width="600" height="16" fill="#8a8b3b"/><rect x="0" y="521" width="600" height="16" fill="#3d8d8c"/><rect x="0" y="543" width="600" height="16" fill="#33506b"/></g>
<text font-family="Futura, 'Century Gothic', 'Avenir Next', 'Trebuchet MS', sans-serif" font-weight="700" font-size="129" fill="#17120f" letter-spacing="-2"><tspan x="44" y="711">Living</tspan><tspan x="44" y="833">things</tspan></text>
<text font-family="Futura, 'Century Gothic', 'Avenir Next', 'Trebuchet MS', sans-serif" font-weight="500" font-size="24" letter-spacing="2" fill="#17120f" fill-opacity=".75"><tspan x="44" y="982">A · ANIMALS</tspan><tspan x="44" y="1016">B · EARTH ITSELF</tspan></text>
<text x="556" y="1016" text-anchor="end" font-family="Futura, 'Century Gothic', 'Avenir Next', 'Trebuchet MS', sans-serif" font-weight="700" font-size="24" letter-spacing="2" fill="#17120f">05</text>
</svg>
