<svg xmlns="http://www.w3.org/2000/svg" viewBox="0 0 600 600" width="600" height="600">
<title>Moonshot</title>
<rect width="600" height="600" fill="#17120f"/>
<clipPath id="panel"><rect x="40" y="40" width="520" height="360" rx="14"/></clipPath>
<rect x="40" y="40" width="520" height="360" rx="14" fill="#e3b03a"/>
<g clip-path="url(#panel)"><g fill="#17120f"><circle cx="80" cy="80" r="4"/><circle cx="500" cy="90" r="5"/><circle cx="470" cy="330" r="3"/><circle cx="120" cy="300" r="3"/><circle cx="430" cy="70" r="3"/><circle cx="530" cy="220" r="4"/></g><circle cx="370" cy="190" r="118" fill="#17120f"/><circle cx="362" cy="182" r="118" fill="#efe4cc"/><circle cx="320" cy="140" r="26" fill="#e3b03a"/><circle cx="324" cy="144" r="14" fill="#efe4cc" opacity=".0"/><circle cx="400" cy="230" r="34" fill="#e3b03a"/><circle cx="404" cy="234" r="19" fill="#efe4cc" opacity=".0"/><circle cx="410" cy="120" r="14" fill="#e3b03a"/><circle cx="414" cy="124" r="8" fill="#efe4cc" opacity=".0"/><circle cx="330" cy="250" r="12" fill="#e3b03a"/><circle cx="334" cy="254" r="7" fill="#efe4cc" opacity=".0"/><circle cx="440" cy="170" r="10" fill="#e3b03a"/><circle cx="444" cy="174" r="6" fill="#efe4cc" opacity=".0"/><path d="M70 370C120 270 170 330 220 300S330 60 470 70S540 250 420 318" fill="none" stroke="#17120f" stroke-width="10" stroke-dasharray="4 18" stroke-linecap="round"/><g transform="translate(210 300) rotate(-38)"><path d="M-22 18L0 -26L22 18Z" fill="#17120f"/><rect x="-22" y="18" width="44" height="10" fill="#e2582b"/></g></g>
<g><rect x="40" y="414" width="520" height="7" fill="#e2582b"/><rect x="40" y="423" width="520" height="7" fill="#e3b03a"/><rect x="40" y="432" width="520" height="7" fill="#8a8b3b"/><rect x="40" y="441" width="520" height="7" fill="#3d8d8c"/><rect x="40" y="450" width="520" height="7" fill="#33506b"/></g>
<text x="40" y="526" font-family="Futura, 'Century Gothic', 'Avenir Next', 'Trebuchet MS', sans-serif" font-weight="700" font-size="82" fill="#efe4cc" letter-spacing="-1">Moonshot</text>
<text font-family="Futura, 'Century Gothic', 'Avenir Next', 'Trebuchet MS', sans-serif" font-weight="500" font-size="16" letter-spacing="2" fill="#efe4cc" fill-opacity=".62"><tspan x="40" y="562">A · GOING</tspan><tspan x="40" y="584">B · TROUBLE AND RETURN</tspan></text>
<text x="560" y="584" text-anchor="end" font-family="Futura, 'Century Gothic', 'Avenir Next', 'Trebuchet MS', sans-serif" font-weight="700" font-size="16" letter-spacing="2" fill="#e3b03a">CASET 02</text>
</svg>
