<svg xmlns="http://www.w3.org/2000/svg" viewBox="0 0 600 1060" width="600" height="1060">
<title>Moonshot</title>
<rect width="600" height="1060" fill="#e3b03a"/>
<clipPath id="band"><rect width="600" height="415"/></clipPath>
<g clip-path="url(#band)"><g transform="scale(1.1538) translate(-40 -40)"><g fill="#17120f"><circle cx="80" cy="80" r="4"/><circle cx="500" cy="90" r="5"/><circle cx="470" cy="330" r="3"/><circle cx="120" cy="300" r="3"/><circle cx="430" cy="70" r="3"/><circle cx="530" cy="220" r="4"/></g><circle cx="370" cy="190" r="118" fill="#17120f"/><circle cx="362" cy="182" r="118" fill="#efe4cc"/><circle cx="320" cy="140" r="26" fill="#e3b03a"/><circle cx="324" cy="144" r="14" fill="#efe4cc" opacity=".0"/><circle cx="400" cy="230" r="34" fill="#e3b03a"/><circle cx="404" cy="234" r="19" fill="#efe4cc" opacity=".0"/><circle cx="410" cy="120" r="14" fill="#e3b03a"/><circle cx="414" cy="124" r="8" fill="#efe4cc" opacity=".0"/><circle cx="330" cy="250" r="12" fill="#e3b03a"/><circle cx="334" cy="254" r="7" fill="#efe4cc" opacity=".0"/><circle cx="440" cy="170" r="10" fill="#e3b03a"/><circle cx="444" cy="174" r="6" fill="#efe4cc" opacity=".0"/><path d="M70 370C120 270 170 330 220 300S330 60 470 70S540 250 420 318" fill="none" stroke="#17120f" stroke-width="10" stroke-dasharray="4 18" stroke-linecap="round"/><g transform="translate(210 300) rotate(-38)"><path d="M-22 18L0 -26L22 18Z" fill="#17120f"/><rect x="-22" y="18" width="44" height="10" fill="#e2582b"/></g></g></g>
<g><rect x="0" y="455" width="600" height="16" fill="#e2582b"/><rect x="0" y="477" width="600" height="16" fill="#e3b03a"/><rect x="0" y="499" width="600" height="16" fill="#8a8b3b"/><rect x="0" y="521" width="600" height="16" fill="#3d8d8c"/><rect x="0" y="543" width="600" height="16" fill="#33506b"/></g>
<text font-family="Futura, 'Century Gothic', 'Avenir Next', 'Trebuchet MS', sans-serif" font-weight="700" font-size="96" fill="#17120f" letter-spacing="-2"><tspan x="44" y="684">Moonshot</tspan></text>
<text font-family="Futura, 'Century Gothic', 'Avenir Next', 'Trebuchet MS', sans-serif" font-weight="500" font-size="24" letter-spacing="2" fill="#17120f" fill-opacity=".75"><tspan x="44" y="982">A · GOING</tspan><tspan x="44" y="1016">B · TROUBLE AND RETURN</tspan></text>
<text x="556" y="1016" text-anchor="end" font-family="Futura, 'Century Gothic', 'Avenir Next', 'Trebuchet MS', sans-serif" font-weight="700" font-size="24" letter-spacing="2" fill="#17120f">02</text>
</svg>
